PathFileType	4	(X/Y/Z)	D:\telocate\uwb04-Unnamed.trc
DataRate	CameraRate	NumFrames	NumMarkers	Units	OrigDataRate	OrigDataStartFrame	OrigNumFrames
100.00	100.00	     200	0	mm	100.00	2505	     10016
Frame#	Time	
		

2505	25.040	1847.61414	331.72281	1158.58875	
2506	25.050	1849.11963	334.83017	1159.37390	
2507	25.060	1852.07629	338.29608	1159.46924	
2508	25.070	1854.16638	341.84830	1159.41626	
2509	25.080	1856.56250	345.41626	1159.72241	
2510	25.090	1859.18933	348.98773	1160.20471	
2511	25.100	1860.66614	352.27261	1160.22278	
2512	25.110	1862.83618	355.11658	1160.21362	
2513	25.120	1862.73523	358.02924	1159.45471	
2514	25.130	1865.01294	361.26694	1158.88135	
2515	25.140	1869.60864	364.20956	1159.73108	
2516	25.150	1873.30493	368.01889	1160.31641	
2517	25.160	1875.88831	371.30368	1160.53455	
2518	25.170	1877.24023	373.88351	1160.51538	
2519	25.180	1882.31042	377.37250	1160.98438	
2520	25.190	1884.64526	380.67468	1162.14417	
2521	25.200	1887.10718	384.31024	1161.58252	
2522	25.210	1887.57446	386.55518	1161.65857	
2523	25.220	1889.13220	391.21210	1161.67126	
2524	25.230	1891.40430	394.68463	1161.84827	
2525	25.240	1894.02515	397.75275	1161.68127	
2526	25.250	1896.66260	400.70248	1162.46472	
2527	25.260	1898.33191	403.72794	1162.65027	
2528	25.270	1899.12708	405.72153	1162.35876	
2529	25.280	1898.66528	407.84619	1160.04895	
2530	25.290	1899.14465	409.64316	1160.76526	
2531	25.300	1902.19006	413.15213	1161.74500	
2532	25.310	1904.48914	415.74078	1161.87988	
2533	25.320	1910.05774	420.05447	1163.86206	
2534	25.330	1912.01721	422.70511	1163.45105	
2535	25.340	1912.69458	424.28970	1163.46851	
2536	25.350	1911.40186	426.21930	1161.86426	
2537	25.360	1909.77466	427.09402	1158.81470	
2538	25.370	1921.56506	433.15311	1165.74512	
2539	25.380	1923.61169	435.60883	1165.65442	
2540	25.390	1924.87085	437.69009	1165.42761	
2541	25.400	1926.65137	439.88766	1165.20325	
2542	25.410	1929.76038	443.42590	1165.20471	
2543	25.420	1931.85901	446.29758	1165.04065	
2544	25.430	1931.17004	447.00360	1164.13757	
2545	25.440	1933.62097	449.77563	1163.88977	
2546	25.450	1934.70203	451.80344	1163.24817	
2547	25.460	1936.02429	453.83856	1163.59412	
2548	25.470	1937.09424	455.42026	1163.46887	
2549	25.480	1943.38818	460.17755	1164.34131	
2550	25.490	1945.21436	462.17017	1164.73108	
2551	25.500	1947.22217	464.34067	1164.78296	
2552	25.510	1946.53479	465.79318	1163.16797	
2553	25.520	1949.02844	468.24097	1162.67676	
2554	25.530	1950.05945	469.40964	1162.53796	
2555	25.540	1948.67432	470.83118	1161.10303	
2556	25.550	1949.32471	471.79004	1159.82715	
2557	25.560	1948.47913	471.49545	1156.64294	
2558	25.570	1954.00513	474.78006	1160.26038	
2559	25.580	1953.97437	475.38547	1158.29639	
2560	25.590	1962.56873	479.45999	1163.06433	
2561	25.600	1963.57581	480.85129	1163.00012	
2562	25.610	1965.13574	481.83899	1162.99377	
2563	25.620	1966.71802	483.18481	1163.49451	
2564	25.630	1968.82520	483.63208	1163.79456	
2565	25.640	1970.51721	484.98456	1164.43408	
2566	25.650	1972.10571	485.81702	1164.31799	
2567	25.660	1973.50964	486.28973	1165.29089	
2568	25.670	1974.62720	486.85364	1165.97766	
2569	25.680	1975.56323	487.54849	1166.22144	
2570	25.690	1976.19495	487.70163	1166.57605	
2571	25.700	1975.01965	488.43649	1165.92688	
2572	25.710	1977.91504	488.93353	1167.13843	
2573	25.720	1983.35144	491.87885	1168.13782	
2574	25.730	1985.39868	493.67877	1169.16187	
2575	25.740	1986.56848	494.15808	1169.28821	
2576	25.750	1988.07471	493.92120	1169.43567	
2577	25.760	1986.76172	493.07376	1168.67004	
2578	25.770	1988.42944	493.45602	1168.75488	
2579	25.780	1990.91211	493.97855	1169.14465	
2580	25.790	1992.81787	493.93314	1169.75891	
2581	25.800	1993.44824	494.20651	1169.91785	
2582	25.810	1998.56445	496.94281	1171.43164	
2583	25.820	2001.48157	497.90372	1171.64648	
2584	25.830	2003.23083	498.25818	1171.72144	
2585	25.840	2004.32251	498.30750	1171.46057	
2586	25.850	2004.27722	498.09189	1170.58130	
2587	25.860	2007.41125	498.17807	1170.24451	
2588	25.870	2008.79761	498.53741	1170.10754	
2589	25.880	2011.65381	499.50211	1171.14624	
2590	25.890	2014.34924	500.61597	1170.88123	
2591	25.900	2017.10754	502.10291	1170.76343	
2592	25.910	2018.66406	502.90024	1171.12610	
2593	25.920	2020.98743	503.58929	1170.26062	
2594	25.930	2022.79663	503.88763	1170.89270	
2595	25.940	2024.60632	504.89484	1170.93860	
2596	25.950	2029.36523	506.60593	1171.20764	
2597	25.960	2033.14514	508.40002	1171.86743	
2598	25.970	2036.42090	510.86761	1171.95605	
2599	25.980	2040.21338	513.23456	1172.34644	
2600	25.990	2042.02563	513.01611	1172.43115	
2601	26.000	2043.30188	513.49005	1172.29773	
2602	26.010	2045.01807	514.90076	1173.00610	
2603	26.020	2045.80640	512.80444	1171.69897	
2604	26.030	2048.94434	514.02728	1171.61487	
2605	26.040	2048.76099	513.28290	1172.38525	
2606	26.050	2050.76245	514.21033	1172.57190	
2607	26.060	2054.71094	515.07861	1173.07190	
2608	26.070	2055.83789	515.50037	1172.79309	
2609	26.080	2057.25220	516.50647	1173.30579	
2610	26.090	2059.76758	518.67108	1173.45166	
2611	26.100	2062.27686	520.20984	1173.24866	
2612	26.110	2063.22705	520.91663	1173.45581	
2613	26.120	2065.05762	522.35919	1173.83191	
2614	26.130	2068.69067	524.09241	1173.69812	
2615	26.140	2070.96313	525.13379	1173.85217	
2616	26.150	2072.36426	526.63464	1173.90723	
2617	26.160	2075.07446	528.85907	1173.04004	
2618	26.170	2077.18408	530.41846	1173.44910	
2619	26.180	2079.21240	532.54974	1173.86304	
2620	26.190	2081.89526	535.07074	1173.29260	
2621	26.200	2083.08960	537.22144	1173.23645	
2622	26.210	2084.59229	539.26703	1173.46838	
2623	26.220	2086.90381	541.56989	1173.00732	
2624	26.230	2089.21387	543.65271	1172.72644	
2625	26.240	2092.02124	546.62482	1172.56018	
2626	26.250	2092.91235	548.54712	1172.16223	
2627	26.260	2095.65942	551.85907	1171.57849	
2628	26.270	2097.12451	554.53320	1171.20728	
2629	26.280	2098.37939	556.44940	1171.57703	
2630	26.290	2100.54419	559.42230	1171.12329	
2631	26.300	2103.01123	561.96063	1171.10266	
2632	26.310	2104.49365	564.12585	1170.71924	
2633	26.320	2105.65405	566.41101	1171.23828	
2634	26.330	2107.59253	569.07990	1170.57532	
2635	26.340	2109.44531	572.05957	1169.80493	
2636	26.350	2110.72681	574.57355	1169.70203	
2637	26.360	2111.84668	577.86188	1170.27600	
2638	26.370	2114.12671	581.18866	1169.83704	
2639	26.380	2115.24927	584.23242	1169.37378	
2640	26.390	2116.23682	586.53314	1169.30798	
2641	26.400	2117.17969	589.02545	1169.31482	
2642	26.410	2118.38843	591.49652	1168.81946	
2643	26.420	2120.89551	594.73865	1168.34558	
2644	26.430	2122.13892	596.97723	1168.70850	
2645	26.440	2124.47192	600.49695	1168.97278	
2646	26.450	2125.99585	603.55884	1168.60449	
2647	26.460	2127.82715	607.20490	1168.14490	
2648	26.470	2129.05151	610.61060	1167.68518	
2649	26.480	2129.93237	614.32513	1167.28015	
2650	26.490	2130.94775	617.85168	1167.65881	
2651	26.500	2132.47510	620.81781	1166.77332	
2652	26.510	2134.39429	624.62439	1166.50281	
2653	26.520	2135.35620	628.23682	1166.56775	
2654	26.530	2136.16016	631.85785	1166.29053	
2655	26.540	2137.53662	635.86176	1166.32861	
2656	26.550	2138.53784	639.74591	1166.57642	
2657	26.560	2139.56836	643.62335	1166.02576	
2658	26.570	2140.98828	647.29675	1165.36694	
2659	26.580	2141.67651	651.13556	1165.12793	
2660	26.590	2142.59595	655.44440	1166.38855	
2661	26.600	2142.64160	658.33295	1166.42078	
2662	26.610	2144.18408	661.92505	1166.56262	
2663	26.620	2145.02466	664.88940	1166.72815	
2664	26.630	2145.49902	668.63580	1166.84839	
2665	26.640	2146.17749	671.79547	1167.30652	
2666	26.650	2147.12695	675.30688	1167.79907	
2667	26.660	2149.35938	679.36902	1167.25171	
2668	26.670	2150.65234	683.16809	1167.88281	
2669	26.680	2152.01758	686.27515	1168.37097	
2670	26.690	2152.63257	689.90277	1168.08508	
2671	26.700	2154.49536	693.19977	1168.73743	
2672	26.710	2155.77612	696.65021	1169.17993	
2673	26.720	2157.35083	700.81976	1169.50842	
2674	26.730	2159.97290	704.54706	1168.80786	
2675	26.740	2161.71045	708.09247	1168.68506	
2676	26.750	2164.30396	712.33960	1169.35474	
2677	26.760	2166.97656	717.09601	1168.73474	
2678	26.770	2168.95093	721.13354	1168.83105	
2679	26.780	2170.52759	725.75439	1168.36194	
2680	26.790	2173.34839	730.90533	1167.63269	
2681	26.800	2175.80737	735.39380	1167.71423	
2682	26.810	2178.90698	740.74988	1167.02844	
2683	26.820	2181.83423	745.62085	1166.62561	
2684	26.830	2183.26782	749.91626	1166.03235	
2685	26.840	2185.96631	755.03296	1164.78198	
2686	26.850	2188.08130	759.87708	1164.89319	
2687	26.860	2191.94409	764.87714	1164.43884	
2688	26.870	2194.70825	769.45892	1163.84448	
2689	26.880	2197.66333	773.74127	1163.18518	
2690	26.890	2200.16504	778.07831	1163.05347	
2691	26.900	2203.61987	782.53168	1162.74084	
2692	26.910	2206.55298	786.78485	1162.21582	
2693	26.920	2209.24170	790.60754	1161.71765	
2694	26.930	2212.52222	794.21521	1161.63245	
2695	26.940	2214.34668	797.84625	1161.35974	
2696	26.950	2217.38208	801.84235	1161.58582	
2697	26.960	2219.72705	805.01001	1160.64526	
2698	26.970	2222.88550	808.63220	1160.53284	
2699	26.980	2226.14453	812.14410	1160.55225	
2700	26.990	2229.18213	814.90814	1159.90430	
2701	27.000	2232.16040	817.75323	1160.09998	
2702	27.010	2234.31372	820.29608	1160.60059	
2703	27.020	2237.91943	823.18439	1160.49072	
2704	27.030	2239.56812	825.43097	1160.68127	
